<svg width="52" height="205" viewBox="0 0 52 205" fill="none" xmlns="http://www.w3.org/2000/svg">
<rect x="51.4087" y="100.763" width="53.2768" height="51.3061" transform="rotate(90 51.4087 100.763)" fill="black"/>
<rect x="51.4087" y="50.3813" width="53.2768" height="51.3061" transform="rotate(90 51.4087 50.3813)" fill="black"/>
<rect x="51.4087" width="53.2768" height="51.3061" transform="rotate(90 51.4087 0)" fill="black"/>
<rect x="51.4087" y="151.723" width="53.2768" height="51.3061" transform="rotate(90 51.4087 151.723)" fill="black"/>
<path d="M48.708 151.235L2.80251 151.235L2.80252 103.567L25.7553 127.401L48.708 151.235Z" fill="#1C438F"/>
<path d="M2.80273 103.567L48.7082 103.567L48.7082 151.236L25.7555 127.401L2.80273 103.567Z" fill="#FCFCF8"/>
<path d="M48.708 100.854L2.80251 100.854L2.80252 53.1855L25.7553 77.0199L48.708 100.854Z" fill="#1C438F"/>
<path d="M2.80273 53.1855L48.7082 53.1855L48.7082 100.854L25.7555 77.0199L2.80273 53.1855Z" fill="#FCFCF8"/>
<path d="M48.708 50.4729L2.80251 50.4729L2.80252 2.80415L25.7553 26.6385L48.708 50.4729Z" fill="#1C438F"/>
<path d="M2.80273 2.8042L48.7082 2.8042L48.7082 50.473L25.7555 26.6386L2.80273 2.8042Z" fill="#FCFCF8"/>
<path d="M48.708 202.196L2.80251 202.196L2.80252 154.527L25.7553 178.362L48.708 202.196Z" fill="#1C438F"/>
<path d="M2.80273 154.527L48.7082 154.527L48.7082 202.196L25.7555 178.362L2.80273 154.527Z" fill="#FCFCF8"/>
<rect x="43.0439" y="109.449" width="35.904" height="34.5759" transform="rotate(90 43.0439 109.449)" fill="#1D67F6"/>
<rect x="43.0439" y="59.0679" width="35.904" height="34.5759" transform="rotate(90 43.0439 59.0679)" fill="#1D67F6"/>
<rect x="43.0439" y="8.68652" width="35.904" height="34.5759" transform="rotate(90 43.0439 8.68652)" fill="#1D67F6"/>
<rect x="43.0439" y="160.41" width="35.904" height="34.5759" transform="rotate(90 43.0439 160.41)" fill="#1D67F6"/>
</svg>
