<svg width="1440" height="263" viewBox="0 0 1440 263" fill="none" xmlns="http://www.w3.org/2000/svg">
<rect x="51.3628" y="208.733" width="54.3147" height="54.1606" fill="black"/>
<rect y="208.732" width="54.3147" height="54.1606" fill="black"/>
<rect y="157.515" width="54.3147" height="54.1606" fill="black"/>
<rect x="103.316" y="208.733" width="54.3147" height="54.1606" fill="black"/>
<path d="M102.819 211.583L102.819 260.042L54.2215 260.042L78.5202 235.812L102.819 211.583Z" fill="#9919B9"/>
<path d="M54.2212 260.042L54.2212 211.583L102.819 211.583L78.5199 235.813L54.2212 260.042Z" fill="#FCFCF8"/>
<path d="M51.4561 211.583L51.4561 260.042L2.85871 260.042L27.1574 235.812L51.4561 211.583Z" fill="#9919B9"/>
<path d="M2.85889 260.042L2.85889 211.583L51.4562 211.583L27.1576 235.813L2.85889 260.042Z" fill="#FCFCF8"/>
<path d="M51.4561 160.366L51.4561 208.825L2.85871 208.825L27.1574 184.596L51.4561 160.366Z" fill="#9919B9"/>
<path d="M2.85889 208.825L2.85889 160.366L51.4562 160.366L27.1576 184.596L2.85889 208.825Z" fill="#FCFCF8"/>
<path d="M154.772 211.583L154.772 260.042L106.175 260.042L130.473 235.812L154.772 211.583Z" fill="#9919B9"/>
<path d="M106.175 260.042L106.175 211.583L154.772 211.583L130.473 235.813L106.175 260.042Z" fill="#FCFCF8"/>
<rect x="60.2183" y="217.563" width="36.6034" height="36.4995" fill="#CB1DF6"/>
<rect x="8.85547" y="217.563" width="36.6034" height="36.4995" fill="#CB1DF6"/>
<rect x="8.85547" y="166.346" width="36.6034" height="36.4995" fill="#CB1DF6"/>
<rect x="112.172" y="217.563" width="36.6034" height="36.4995" fill="#CB1DF6"/>
<rect x="874.699" y="204.733" width="54.3147" height="54.1606" fill="black"/>
<rect x="823.336" y="204.733" width="54.3147" height="54.1606" fill="black"/>
<rect x="823.336" y="153.516" width="54.3147" height="54.1606" fill="black"/>
<rect x="926.652" y="204.733" width="54.3147" height="54.1606" fill="black"/>
<path d="M926.155 207.583L926.155 256.042L877.557 256.042L901.856 231.813L926.155 207.583Z" fill="#9919B9"/>
<path d="M877.558 256.042L877.558 207.583L926.155 207.583L901.856 231.813L877.558 256.042Z" fill="#FCFCF8"/>
<path d="M874.792 207.583L874.792 256.042L826.195 256.042L850.494 231.813L874.792 207.583Z" fill="#9919B9"/>
<path d="M826.195 256.042L826.195 207.583L874.792 207.583L850.493 231.813L826.195 256.042Z" fill="#FCFCF8"/>
<path d="M874.792 156.366L874.792 204.826L826.195 204.826L850.494 180.596L874.792 156.366Z" fill="#9919B9"/>
<path d="M826.195 204.826L826.195 156.366L874.792 156.366L850.493 180.596L826.195 204.826Z" fill="#FCFCF8"/>
<path d="M978.108 207.583L978.108 256.042L929.511 256.042L953.81 231.813L978.108 207.583Z" fill="#9919B9"/>
<path d="M929.511 256.042L929.511 207.583L978.109 207.583L953.81 231.813L929.511 256.042Z" fill="#FCFCF8"/>
<rect x="883.555" y="213.563" width="36.6034" height="36.4995" fill="#CB1DF6"/>
<rect x="832.192" y="213.563" width="36.6034" height="36.4995" fill="#CB1DF6"/>
<rect x="832.192" y="162.346" width="36.6034" height="36.4995" fill="#CB1DF6"/>
<rect x="935.508" y="213.563" width="36.6034" height="36.4995" fill="#CB1DF6"/>
<rect x="103.511" y="106.516" width="54.3147" height="54.1606" fill="black"/>
<rect x="52.1479" y="106.516" width="54.3147" height="54.1606" fill="black"/>
<rect x="103.511" y="157.733" width="54.3147" height="54.1606" fill="black"/>
<rect x="52.1479" y="157.733" width="54.3147" height="54.1606" fill="black"/>
<path d="M154.967 109.366L154.967 157.826L106.369 157.826L130.668 133.596L154.967 109.366Z" fill="#F28908"/>
<path d="M106.369 157.826L106.369 109.366L154.966 109.366L130.668 133.596L106.369 157.826Z" fill="#FCFCF8"/>
<path d="M103.604 109.366L103.604 157.826L55.0067 157.826L79.3053 133.596L103.604 109.366Z" fill="#F28908"/>
<path d="M55.0068 157.826L55.0068 109.366L103.604 109.366L79.3055 133.596L55.0068 157.826Z" fill="#FCFCF8"/>
<path d="M154.967 160.583L154.967 209.042L106.369 209.042L130.668 184.813L154.967 160.583Z" fill="#F28908"/>
<path d="M106.369 209.042L106.369 160.583L154.966 160.583L130.668 184.813L106.369 209.042Z" fill="#FCFCF8"/>
<path d="M103.604 160.583L103.604 209.042L55.0067 209.042L79.3053 184.813L103.604 160.583Z" fill="#F28908"/>
<path d="M55.0068 209.042L55.0068 160.583L103.604 160.583L79.3055 184.813L55.0068 209.042Z" fill="#FCFCF8"/>
<rect x="112.366" y="115.346" width="36.6034" height="36.4995" fill="#FEDC02"/>
<rect x="61.0039" y="115.346" width="36.6034" height="36.4995" fill="#FEDC02"/>
<rect x="112.366" y="166.563" width="36.6034" height="36.4995" fill="#FEDC02"/>
<rect x="61.0039" y="166.563" width="36.6034" height="36.4995" fill="#FEDC02"/>
<rect x="926.847" y="102.516" width="54.3147" height="54.1606" fill="black"/>
<rect x="875.484" y="102.516" width="54.3147" height="54.1606" fill="black"/>
<rect x="926.847" y="153.733" width="54.3147" height="54.1606" fill="black"/>
<rect x="875.484" y="153.733" width="54.3147" height="54.1606" fill="black"/>
<path d="M978.303 105.366L978.303 153.826L929.705 153.826L954.004 129.596L978.303 105.366Z" fill="#F28908"/>
<path d="M929.706 153.826L929.706 105.366L978.303 105.366L954.004 129.596L929.706 153.826Z" fill="#FCFCF8"/>
<path d="M926.94 105.366L926.94 153.826L878.343 153.826L902.642 129.596L926.94 105.366Z" fill="#F28908"/>
<path d="M878.343 153.826L878.343 105.366L926.94 105.366L902.641 129.596L878.343 153.826Z" fill="#FCFCF8"/>
<path d="M978.303 156.583L978.303 205.042L929.705 205.042L954.004 180.813L978.303 156.583Z" fill="#F28908"/>
<path d="M929.706 205.042L929.706 156.583L978.303 156.583L954.004 180.813L929.706 205.042Z" fill="#FCFCF8"/>
<path d="M926.94 156.583L926.94 205.042L878.343 205.042L902.642 180.813L926.94 156.583Z" fill="#F28908"/>
<path d="M878.343 205.042L878.343 156.583L926.94 156.583L902.641 180.813L878.343 205.042Z" fill="#FCFCF8"/>
<rect x="935.703" y="111.346" width="36.6034" height="36.4995" fill="#FEDC02"/>
<rect x="884.34" y="111.346" width="36.6034" height="36.4995" fill="#FEDC02"/>
<rect x="935.703" y="162.563" width="36.6034" height="36.4995" fill="#FEDC02"/>
<rect x="884.34" y="162.563" width="36.6034" height="36.4995" fill="#FEDC02"/>
<rect x="721.046" y="160.516" width="52.7684" height="52.1047" fill="black"/>
<rect x="721.046" y="209.789" width="52.7684" height="52.1047" fill="black"/>
<path d="M771.037 163.258L771.037 209.878L723.823 209.878L747.43 186.568L771.037 163.258Z" fill="#F28908"/>
<path d="M723.823 209.878L723.823 163.258L771.037 163.258L747.43 186.568L723.823 209.878Z" fill="#FCFCF8"/>
<path d="M771.037 212.531L771.037 259.151L723.823 259.151L747.43 235.841L771.037 212.531Z" fill="#F28908"/>
<path d="M723.823 259.151L723.823 212.531L771.037 212.531L747.43 235.841L723.823 259.151Z" fill="#FCFCF8"/>
<rect x="729.649" y="169.011" width="35.5613" height="35.114" fill="#FEDC02"/>
<rect x="729.649" y="218.284" width="35.5613" height="35.114" fill="#FEDC02"/>
<rect x="259.169" y="211.516" width="54.3147" height="51.1606" fill="black"/>
<rect x="207.807" y="211.516" width="54.3147" height="51.1606" fill="black"/>
<rect x="156.444" y="211.516" width="54.3147" height="51.1606" fill="black"/>
<rect x="311.123" y="211.516" width="54.3147" height="51.1606" fill="black"/>
<path d="M310.625 214.208L310.625 259.984L262.028 259.984L286.327 237.096L310.625 214.208Z" fill="#1C438F"/>
<path d="M262.028 259.984L262.028 214.208L310.626 214.208L286.327 237.096L262.028 259.984Z" fill="#FCFCF8"/>
<path d="M259.263 214.208L259.263 259.984L210.665 259.984L234.964 237.096L259.263 214.208Z" fill="#1C438F"/>
<path d="M210.665 259.984L210.665 214.208L259.262 214.208L234.964 237.096L210.665 259.984Z" fill="#FCFCF8"/>
<path d="M207.9 214.208L207.9 259.984L159.303 259.984L183.601 237.096L207.9 214.208Z" fill="#1C438F"/>
<path d="M159.303 259.984L159.303 214.208L207.9 214.208L183.601 237.096L159.303 259.984Z" fill="#FCFCF8"/>
<path d="M362.579 214.208L362.579 259.984L313.981 259.984L338.28 237.096L362.579 214.208Z" fill="#1C438F"/>
<path d="M313.981 259.984L313.981 214.208L362.579 214.208L338.28 237.096L313.981 259.984Z" fill="#FCFCF8"/>
<rect x="268.025" y="219.857" width="36.6034" height="34.4778" fill="#1D67F6"/>
<rect x="216.662" y="219.857" width="36.6034" height="34.4778" fill="#1D67F6"/>
<rect x="165.3" y="219.857" width="36.6034" height="34.4778" fill="#1D67F6"/>
<rect x="319.979" y="219.857" width="36.6034" height="34.4778" fill="#1D67F6"/>
<rect x="1082.51" y="207.516" width="54.3147" height="51.1606" fill="black"/>
<rect x="1031.14" y="207.516" width="54.3147" height="51.1606" fill="black"/>
<rect x="979.78" y="207.516" width="54.3147" height="51.1606" fill="black"/>
<rect x="1134.46" y="207.516" width="54.3147" height="51.1606" fill="black"/>
<path d="M1133.96 210.208L1133.96 255.984L1085.36 255.984L1109.66 233.096L1133.96 210.208Z" fill="#1C438F"/>
<path d="M1085.36 255.984L1085.36 210.209L1133.96 210.209L1109.66 233.096L1085.36 255.984Z" fill="#FCFCF8"/>
<path d="M1082.6 210.208L1082.6 255.984L1034 255.984L1058.3 233.096L1082.6 210.208Z" fill="#1C438F"/>
<path d="M1034 255.984L1034 210.208L1082.6 210.208L1058.3 233.096L1034 255.984Z" fill="#FCFCF8"/>
<path d="M1031.24 210.208L1031.24 255.984L982.639 255.984L1006.94 233.096L1031.24 210.208Z" fill="#1C438F"/>
<path d="M982.639 255.984L982.639 210.209L1031.24 210.209L1006.94 233.096L982.639 255.984Z" fill="#FCFCF8"/>
<path d="M1185.92 210.208L1185.92 255.984L1137.32 255.984L1161.62 233.096L1185.92 210.208Z" fill="#1C438F"/>
<path d="M1137.32 255.984L1137.32 210.209L1185.91 210.209L1161.62 233.096L1137.32 255.984Z" fill="#FCFCF8"/>
<rect x="1091.36" y="215.857" width="36.6034" height="34.4778" fill="#1D67F6"/>
<rect x="1040" y="215.857" width="36.6034" height="34.4778" fill="#1D67F6"/>
<rect x="988.636" y="215.857" width="36.6034" height="34.4778" fill="#1D67F6"/>
<rect x="1143.32" y="215.857" width="36.6034" height="34.4778" fill="#1D67F6"/>
<rect x="463.077" y="211.516" width="53.4284" height="51.1606" fill="black"/>
<rect x="412.552" y="211.516" width="53.4284" height="51.1606" fill="black"/>
<rect x="362.027" y="211.516" width="53.4284" height="51.1606" fill="black"/>
<rect x="514.182" y="211.516" width="53.4284" height="51.1606" fill="black"/>
<path d="M513.693 214.208L513.693 259.983L465.888 259.983L489.791 237.096L513.693 214.208Z" fill="#1C438F"/>
<path d="M465.889 259.983L465.889 214.208L513.693 214.208L489.791 237.096L465.889 259.983Z" fill="#FCFCF8"/>
<path d="M463.169 214.208L463.169 259.983L415.365 259.983L439.267 237.096L463.169 214.208Z" fill="#1C438F"/>
<path d="M415.364 259.983L415.364 214.208L463.169 214.208L439.266 237.096L415.364 259.983Z" fill="#FCFCF8"/>
<path d="M412.644 214.208L412.644 259.983L364.84 259.983L388.742 237.096L412.644 214.208Z" fill="#1C438F"/>
<path d="M364.839 259.983L364.839 214.208L412.644 214.208L388.742 237.096L364.839 259.983Z" fill="#FCFCF8"/>
<path d="M564.798 214.208L564.798 259.983L516.994 259.983L540.896 237.096L564.798 214.208Z" fill="#1C438F"/>
<path d="M516.994 259.983L516.994 214.208L564.799 214.208L540.896 237.096L516.994 259.983Z" fill="#FCFCF8"/>
<rect x="471.788" y="219.857" width="36.0061" height="34.4778" fill="#1D67F6"/>
<rect x="421.263" y="219.857" width="36.0061" height="34.4778" fill="#1D67F6"/>
<rect x="370.739" y="219.857" width="36.0061" height="34.4778" fill="#1D67F6"/>
<rect x="522.894" y="219.857" width="36.0061" height="34.4778" fill="#1D67F6"/>
<rect x="1286.41" y="207.516" width="53.4284" height="51.1606" fill="black"/>
<rect x="1235.89" y="207.516" width="53.4284" height="51.1606" fill="black"/>
<rect x="1185.36" y="207.516" width="53.4284" height="51.1606" fill="black"/>
<rect x="1337.52" y="207.516" width="53.4284" height="51.1606" fill="black"/>
<path d="M1337.03 210.208L1337.03 255.983L1289.22 255.983L1313.13 233.096L1337.03 210.208Z" fill="#1C438F"/>
<path d="M1289.22 255.983L1289.22 210.208L1337.03 210.208L1313.13 233.096L1289.22 255.983Z" fill="#FCFCF8"/>
<path d="M1286.5 210.208L1286.5 255.983L1238.7 255.983L1262.6 233.096L1286.5 210.208Z" fill="#1C438F"/>
<path d="M1238.7 255.983L1238.7 210.208L1286.5 210.208L1262.6 233.096L1238.7 255.983Z" fill="#FCFCF8"/>
<path d="M1235.98 210.208L1235.98 255.983L1188.18 255.983L1212.08 233.096L1235.98 210.208Z" fill="#1C438F"/>
<path d="M1188.18 255.983L1188.18 210.208L1235.98 210.208L1212.08 233.096L1188.18 255.983Z" fill="#FCFCF8"/>
<path d="M1388.13 210.208L1388.13 255.983L1340.33 255.983L1364.23 233.096L1388.13 210.208Z" fill="#1C438F"/>
<path d="M1340.33 255.983L1340.33 210.208L1388.13 210.208L1364.23 233.096L1340.33 255.983Z" fill="#FCFCF8"/>
<rect x="1295.12" y="215.857" width="36.0061" height="34.4778" fill="#1D67F6"/>
<rect x="1244.6" y="215.857" width="36.0061" height="34.4778" fill="#1D67F6"/>
<rect x="1194.07" y="215.857" width="36.0061" height="34.4778" fill="#1D67F6"/>
<rect x="1346.23" y="215.857" width="36.0061" height="34.4778" fill="#1D67F6"/>
<rect width="54.1606" height="53.1956" transform="matrix(-0.00495192 -0.999988 0.999988 -0.00492385 669.585 215.103)" fill="black"/>
<rect width="54.1606" height="53.1956" transform="matrix(-0.00495192 -0.999988 0.999988 -0.00492385 669.332 163.886)" fill="black"/>
<rect width="54.1606" height="53.1956" transform="matrix(-0.00495192 -0.999988 0.999988 -0.00492385 719.635 163.638)" fill="black"/>
<rect width="54.1606" height="53.1956" transform="matrix(-0.00495192 -0.999988 0.999988 -0.00492385 719.382 112.422)" fill="black"/>
<path d="M672.131 163.779L719.726 163.545L719.966 212.004L696.049 187.892L672.131 163.779Z" fill="#3093F0"/>
<path d="M719.966 212.004L672.371 212.238L672.131 163.779L696.049 187.892L719.966 212.004Z" fill="#FCFCF8"/>
<path d="M671.877 112.563L719.472 112.329L719.712 160.788L695.795 136.675L671.877 112.563Z" fill="#3093F0"/>
<path d="M719.713 160.788L672.117 161.022L671.877 112.563L695.795 136.675L719.713 160.788Z" fill="#FCFCF8"/>
<path d="M722.181 112.315L769.776 112.081L770.016 160.54L746.098 136.427L722.181 112.315Z" fill="#3093F0"/>
<path d="M770.017 160.54L722.421 160.774L722.181 112.315L746.099 136.427L770.017 160.54Z" fill="#FCFCF8"/>
<path d="M721.927 61.0989L769.523 60.8645L769.763 109.323L745.845 85.2111L721.927 61.0989Z" fill="#3093F0"/>
<path d="M769.763 109.323L722.167 109.558L721.927 61.0987L745.845 85.211L769.763 109.323Z" fill="#FCFCF8"/>
<rect width="36.4995" height="35.8492" transform="matrix(-0.00495192 -0.999988 0.999988 -0.00492385 678.214 206.229)" fill="#4ABDFF"/>
<rect width="36.4995" height="35.8492" transform="matrix(-0.00495192 -0.999988 0.999988 -0.00492385 677.961 155.013)" fill="#4ABDFF"/>
<rect width="36.4995" height="35.8492" transform="matrix(-0.00495192 -0.999988 0.999988 -0.00492385 728.265 154.765)" fill="#4ABDFF"/>
<rect width="36.4995" height="35.8492" transform="matrix(-0.00495192 -0.999988 0.999988 -0.00492385 728.011 103.549)" fill="#4ABDFF"/>
<rect x="1137.14" y="112" width="54.3147" height="50.4749" fill="black"/>
<rect x="1188.5" y="112" width="54.3147" height="50.4749" fill="black"/>
<rect x="1188.5" y="159.731" width="54.3147" height="50.4749" fill="black"/>
<rect x="1239.86" y="159.731" width="54.3147" height="50.4749" fill="black"/>
<path d="M1188.59 114.657L1188.59 159.819L1140 159.819L1164.3 137.238L1188.59 114.657Z" fill="#3093F0"/>
<path d="M1140 159.818L1140 114.657L1188.59 114.657L1164.3 137.237L1140 159.818Z" fill="#FCFCF8"/>
<path d="M1239.96 114.656L1239.96 159.818L1191.36 159.818L1215.66 137.237L1239.96 114.656Z" fill="#3093F0"/>
<path d="M1191.36 159.818L1191.36 114.657L1239.96 114.657L1215.66 137.237L1191.36 159.818Z" fill="#FCFCF8"/>
<path d="M1239.96 162.388L1239.96 207.549L1191.36 207.549L1215.66 184.969L1239.96 162.388Z" fill="#3093F0"/>
<path d="M1191.36 207.55L1191.36 162.388L1239.96 162.388L1215.66 184.969L1191.36 207.55Z" fill="#FCFCF8"/>
<path d="M1291.32 162.388L1291.32 207.55L1242.72 207.55L1267.02 184.969L1291.32 162.388Z" fill="#3093F0"/>
<path d="M1242.72 207.55L1242.72 162.388L1291.32 162.388L1267.02 184.969L1242.72 207.55Z" fill="#FCFCF8"/>
<rect x="1145.99" y="120.229" width="36.6034" height="34.0157" fill="#4ABDFF"/>
<rect x="1197.36" y="120.229" width="36.6034" height="34.0157" fill="#4ABDFF"/>
<rect x="1197.36" y="167.961" width="36.6034" height="34.0157" fill="#4ABDFF"/>
<rect x="1248.72" y="167.961" width="36.6034" height="34.0157" fill="#4ABDFF"/>
<rect x="617.971" y="211.331" width="54.3147" height="50.5628" fill="black"/>
<rect x="566.608" y="211.33" width="54.3147" height="50.5628" fill="black"/>
<rect x="617.971" y="163.516" width="54.3147" height="50.5628" fill="black"/>
<rect x="669.924" y="211.331" width="54.3147" height="50.5628" fill="black"/>
<path d="M669.426 213.992L669.426 259.232L620.829 259.232L645.128 236.612L669.426 213.992Z" fill="#19A84C"/>
<path d="M620.829 259.232L620.829 213.992L669.426 213.992L645.128 236.612L620.829 259.232Z" fill="#FCFCF8"/>
<path d="M618.064 213.992L618.064 259.232L569.467 259.232L593.765 236.612L618.064 213.992Z" fill="#19A84C"/>
<path d="M569.466 259.232L569.466 213.992L618.064 213.992L593.765 236.612L569.466 259.232Z" fill="#FCFCF8"/>
<path d="M669.426 166.177L669.426 211.417L620.829 211.417L645.128 188.797L669.426 166.177Z" fill="#19A84C"/>
<path d="M620.829 211.417L620.829 166.177L669.426 166.177L645.128 188.797L620.829 211.417Z" fill="#FCFCF8"/>
<path d="M721.38 213.992L721.38 259.232L672.783 259.232L697.081 236.612L721.38 213.992Z" fill="#19A84C"/>
<path d="M672.783 259.232L672.783 213.992L721.38 213.992L697.081 236.612L672.783 259.232Z" fill="#FCFCF8"/>
<rect x="626.826" y="219.574" width="36.6034" height="34.0749" fill="#24E551"/>
<rect x="575.463" y="219.574" width="36.6034" height="34.0749" fill="#24E551"/>
<rect x="626.826" y="171.759" width="36.6034" height="34.0749" fill="#24E551"/>
<rect x="678.78" y="219.574" width="36.6034" height="34.0749" fill="#24E551"/>
<rect x="1085.21" y="160.815" width="54.3147" height="50.5628" fill="black"/>
<rect x="1033.85" y="160.815" width="54.3147" height="50.5628" fill="black"/>
<rect x="1085.21" y="113" width="54.3147" height="50.5628" fill="black"/>
<rect x="1137.16" y="160.815" width="54.3147" height="50.5628" fill="black"/>
<path d="M1136.66 163.476L1136.66 208.716L1088.07 208.716L1112.37 186.096L1136.66 163.476Z" fill="#19A84C"/>
<path d="M1088.07 208.716L1088.07 163.476L1136.66 163.476L1112.37 186.096L1088.07 208.716Z" fill="#FCFCF8"/>
<path d="M1085.3 163.476L1085.3 208.716L1036.7 208.716L1061 186.096L1085.3 163.476Z" fill="#19A84C"/>
<path d="M1036.7 208.717L1036.7 163.476L1085.3 163.476L1061 186.096L1036.7 208.717Z" fill="#FCFCF8"/>
<path d="M1136.66 115.661L1136.66 160.902L1088.07 160.902L1112.37 138.281L1136.66 115.661Z" fill="#19A84C"/>
<path d="M1088.07 160.901L1088.07 115.661L1136.66 115.661L1112.37 138.281L1088.07 160.901Z" fill="#FCFCF8"/>
<path d="M1188.62 163.476L1188.62 208.716L1140.02 208.716L1164.32 186.096L1188.62 163.476Z" fill="#19A84C"/>
<path d="M1140.02 208.716L1140.02 163.476L1188.62 163.476L1164.32 186.096L1140.02 208.716Z" fill="#FCFCF8"/>
<rect x="1094.06" y="169.059" width="36.6034" height="34.0749" fill="#24E551"/>
<rect x="1042.7" y="169.059" width="36.6034" height="34.0749" fill="#24E551"/>
<rect x="1094.06" y="121.244" width="36.6034" height="34.0749" fill="#24E551"/>
<rect x="1146.02" y="169.059" width="36.6034" height="34.0749" fill="#24E551"/>
<rect x="1387.95" y="210.427" width="50.307" height="52.8258" transform="rotate(-90 1387.95 210.427)" fill="black"/>
<rect x="1387.95" y="258" width="50.307" height="52.8258" transform="rotate(-90 1387.95 258)" fill="black"/>
<rect x="1338" y="210.427" width="50.307" height="52.8258" transform="rotate(-90 1338 210.427)" fill="black"/>
<rect x="1387.95" y="162.307" width="50.307" height="52.8258" transform="rotate(-90 1387.95 162.307)" fill="black"/>
<path d="M1390.73 162.768L1438 162.768L1438 207.78L1414.37 185.274L1390.73 162.768Z" fill="#19A84C"/>
<path d="M1438 207.78L1390.73 207.78L1390.73 162.768L1414.37 185.274L1438 207.78Z" fill="#FCFCF8"/>
<path d="M1390.73 210.341L1438 210.341L1438 255.352L1414.37 232.847L1390.73 210.341Z" fill="#19A84C"/>
<path d="M1438 255.353L1390.73 255.353L1390.73 210.341L1414.37 232.847L1438 255.353Z" fill="#FCFCF8"/>
<path d="M1340.78 162.768L1388.05 162.768L1388.05 207.78L1364.41 185.274L1340.78 162.768Z" fill="#19A84C"/>
<path d="M1388.05 207.78L1340.78 207.78L1340.78 162.768L1364.41 185.274L1388.05 207.78Z" fill="#FCFCF8"/>
<path d="M1390.73 114.647L1438 114.647L1438 159.659L1414.37 137.153L1390.73 114.647Z" fill="#19A84C"/>
<path d="M1438 159.66L1390.73 159.66L1390.73 114.648L1414.37 137.154L1438 159.66Z" fill="#FCFCF8"/>
<rect x="1396.57" y="202.225" width="33.9026" height="35.6" transform="rotate(-90 1396.57 202.225)" fill="#24E551"/>
<rect x="1396.57" y="249.798" width="33.9026" height="35.6" transform="rotate(-90 1396.57 249.798)" fill="#24E551"/>
<rect x="1346.61" y="202.225" width="33.9026" height="35.6" transform="rotate(-90 1346.61 202.225)" fill="#24E551"/>
<rect x="1396.57" y="154.105" width="33.9026" height="35.6" transform="rotate(-90 1396.57 154.105)" fill="#24E551"/>
<rect x="1343.05" y="161.854" width="52.4498" height="49.8546" transform="rotate(180 1343.05 161.854)" fill="black"/>
<rect x="1392.65" y="161.855" width="52.4498" height="49.8546" transform="rotate(180 1392.65 161.855)" fill="black"/>
<rect x="1343.05" y="209" width="52.4498" height="49.8546" transform="rotate(180 1343.05 209)" fill="black"/>
<rect x="1292.88" y="161.854" width="52.4498" height="49.8546" transform="rotate(180 1292.88 161.854)" fill="black"/>
<path d="M1293.36 159.231L1293.36 114.624L1340.29 114.624L1316.83 136.928L1293.36 159.231Z" fill="#19A84C"/>
<path d="M1340.29 114.624L1340.29 159.23L1293.36 159.23L1316.83 136.927L1340.29 114.624Z" fill="#FCFCF8"/>
<path d="M1342.96 159.231L1342.96 114.624L1389.89 114.624L1366.42 136.928L1342.96 159.231Z" fill="#19A84C"/>
<path d="M1389.89 114.624L1389.89 159.23L1342.96 159.23L1366.42 136.927L1389.89 114.624Z" fill="#FCFCF8"/>
<path d="M1293.36 206.375L1293.36 161.769L1340.29 161.769L1316.83 184.072L1293.36 206.375Z" fill="#19A84C"/>
<path d="M1340.29 161.768L1340.29 206.375L1293.36 206.375L1316.83 184.072L1340.29 161.768Z" fill="#FCFCF8"/>
<path d="M1243.19 159.231L1243.19 114.624L1290.12 114.624L1266.66 136.928L1243.19 159.231Z" fill="#19A84C"/>
<path d="M1290.12 114.624L1290.12 159.23L1243.19 159.23L1266.66 136.927L1290.12 114.624Z" fill="#FCFCF8"/>
<rect x="1334.5" y="153.726" width="35.3466" height="33.5977" transform="rotate(180 1334.5 153.726)" fill="#24E551"/>
<rect x="1384.1" y="153.726" width="35.3466" height="33.5977" transform="rotate(180 1384.1 153.726)" fill="#24E551"/>
<rect x="1334.5" y="200.871" width="35.3466" height="33.5977" transform="rotate(180 1334.5 200.871)" fill="#24E551"/>
<rect x="1284.33" y="153.726" width="35.3466" height="33.5977" transform="rotate(180 1284.33 153.726)" fill="#24E551"/>
<rect x="823.409" y="125.763" width="53.2768" height="51.3061" transform="rotate(90 823.409 125.763)" fill="black"/>
<rect x="823.409" y="75.3813" width="53.2768" height="51.3061" transform="rotate(90 823.409 75.3813)" fill="black"/>
<rect x="823.409" y="25" width="53.2768" height="51.3061" transform="rotate(90 823.409 25)" fill="black"/>
<rect x="823.409" y="176.723" width="53.2768" height="51.3061" transform="rotate(90 823.409 176.723)" fill="black"/>
<path d="M820.708 176.235L774.803 176.235L774.803 128.567L797.755 152.401L820.708 176.235Z" fill="#1C438F"/>
<path d="M774.803 128.567L820.708 128.567L820.708 176.236L797.755 152.401L774.803 128.567Z" fill="#FCFCF8"/>
<path d="M820.708 125.854L774.803 125.854L774.803 78.1855L797.755 102.02L820.708 125.854Z" fill="#1C438F"/>
<path d="M774.803 78.1855L820.708 78.1855L820.708 125.854L797.755 102.02L774.803 78.1855Z" fill="#FCFCF8"/>
<path d="M820.708 75.4729L774.803 75.4729L774.803 27.8041L797.755 51.6385L820.708 75.4729Z" fill="#1C438F"/>
<path d="M774.803 27.8042L820.708 27.8042L820.708 75.473L797.755 51.6386L774.803 27.8042Z" fill="#FCFCF8"/>
<path d="M820.708 227.196L774.803 227.196L774.803 179.527L797.755 203.362L820.708 227.196Z" fill="#1C438F"/>
<path d="M774.803 179.527L820.708 179.527L820.708 227.196L797.755 203.362L774.803 179.527Z" fill="#FCFCF8"/>
<rect x="815.044" y="134.449" width="35.904" height="34.5759" transform="rotate(90 815.044 134.449)" fill="#1D67F6"/>
<rect x="815.044" y="84.0679" width="35.904" height="34.5759" transform="rotate(90 815.044 84.0679)" fill="#1D67F6"/>
<rect x="815.044" y="33.6865" width="35.904" height="34.5759" transform="rotate(90 815.044 33.6865)" fill="#1D67F6"/>
<rect x="815.044" y="185.41" width="35.904" height="34.5759" transform="rotate(90 815.044 185.41)" fill="#1D67F6"/>
<rect width="54.1606" height="53.1956" transform="matrix(-0.00495192 -0.999988 0.999988 -0.00492385 824.023 157.103)" fill="black"/>
<rect width="54.1606" height="53.1956" transform="matrix(-0.00495192 -0.999988 0.999988 -0.00492385 823.77 105.886)" fill="black"/>
<rect width="54.1606" height="53.1956" transform="matrix(-0.00495192 -0.999988 0.999988 -0.00492385 874.074 105.638)" fill="black"/>
<rect width="54.1606" height="53.1956" transform="matrix(-0.00495192 -0.999988 0.999988 -0.00492385 873.82 54.4219)" fill="black"/>
<path d="M826.569 105.78L874.164 105.545L874.404 154.004L850.487 129.892L826.569 105.78Z" fill="#3093F0"/>
<path d="M874.405 154.004L826.809 154.238L826.569 105.779L850.487 129.892L874.405 154.004Z" fill="#FCFCF8"/>
<path d="M826.315 54.563L873.911 54.3286L874.151 102.787L850.233 78.6752L826.315 54.563Z" fill="#3093F0"/>
<path d="M874.151 102.788L826.555 103.022L826.315 54.5631L850.233 78.6753L874.151 102.788Z" fill="#FCFCF8"/>
<path d="M876.619 54.3152L924.215 54.0808L924.455 102.54L900.537 78.4274L876.619 54.3152Z" fill="#3093F0"/>
<path d="M924.455 102.54L876.859 102.774L876.619 54.315L900.537 78.4273L924.455 102.54Z" fill="#FCFCF8"/>
<path d="M876.365 3.09888L923.961 2.86452L924.201 51.3234L900.283 27.2111L876.365 3.09888Z" fill="#3093F0"/>
<path d="M924.201 51.3232L876.606 51.5576L876.366 3.09874L900.283 27.211L924.201 51.3232Z" fill="#FCFCF8"/>
<rect width="36.4995" height="35.8492" transform="matrix(-0.00495192 -0.999988 0.999988 -0.00492385 832.653 148.229)" fill="#4ABDFF"/>
<rect width="36.4995" height="35.8492" transform="matrix(-0.00495192 -0.999988 0.999988 -0.00492385 832.399 97.0132)" fill="#4ABDFF"/>
<rect width="36.4995" height="35.8492" transform="matrix(-0.00495192 -0.999988 0.999988 -0.00492385 882.703 96.7651)" fill="#4ABDFF"/>
<rect width="36.4995" height="35.8492" transform="matrix(-0.00495192 -0.999988 0.999988 -0.00492385 882.449 45.5488)" fill="#4ABDFF"/>
</svg>
