<svg width="93" height="61" viewBox="0 0 93 61" fill="none" xmlns="http://www.w3.org/2000/svg">
<rect width="31.4468" height="30.7493" transform="matrix(0.999992 -0.00408769 0.00410091 0.999992 0.886719 0.807373)" fill="black"/>
<rect width="31.4468" height="30.7493" transform="matrix(0.999992 -0.00408769 0.00410091 0.999992 30.6245 0.686035)" fill="black"/>
<rect width="31.4468" height="30.7493" transform="matrix(0.999992 -0.00408769 0.00410091 0.999992 30.7437 29.7639)" fill="black"/>
<rect width="31.4468" height="30.7493" transform="matrix(0.999992 -0.00408769 0.00410091 0.999992 60.481 29.6423)" fill="black"/>
<path d="M30.6846 2.3042L30.7974 29.8165L2.66098 29.9315L16.6728 16.1178L30.6846 2.3042Z" fill="#3093F0"/>
<path d="M2.66162 29.9316L2.5488 2.41936L30.6852 2.30435L16.6734 16.118L2.66162 29.9316Z" fill="#FCFCF8"/>
<path d="M60.4224 2.18262L60.5352 29.6949L32.3988 29.8099L46.4106 15.9963L60.4224 2.18262Z" fill="#3093F0"/>
<path d="M32.3994 29.8099L32.2866 2.2976L60.423 2.18258L46.4112 15.9962L32.3994 29.8099Z" fill="#FCFCF8"/>
<path d="M60.5415 31.2605L60.6543 58.7728L32.5179 58.8878L46.5297 45.0741L60.5415 31.2605Z" fill="#3093F0"/>
<path d="M32.5186 58.8877L32.4057 31.3754L60.5421 31.2604L46.5303 45.0741L32.5186 58.8877Z" fill="#FCFCF8"/>
<path d="M90.2788 31.1389L90.3916 58.6512L62.2552 58.7662L76.267 44.9526L90.2788 31.1389Z" fill="#3093F0"/>
<path d="M62.2559 58.7661L62.143 31.2538L90.2794 31.1388L76.2677 44.9525L62.2559 58.7661Z" fill="#FCFCF8"/>
<rect width="21.1924" height="20.7223" transform="matrix(0.999992 -0.00408769 0.00410091 0.999992 6.03418 5.80005)" fill="#4ABDFF"/>
<rect width="21.1924" height="20.7223" transform="matrix(0.999992 -0.00408769 0.00410091 0.999992 35.7725 5.67847)" fill="#4ABDFF"/>
<rect width="21.1924" height="20.7223" transform="matrix(0.999992 -0.00408769 0.00410091 0.999992 35.8911 34.7563)" fill="#4ABDFF"/>
<rect width="21.1924" height="20.7223" transform="matrix(0.999992 -0.00408769 0.00410091 0.999992 65.6289 34.6348)" fill="#4ABDFF"/>
</svg>
