<svg width="94" height="93" viewBox="0 0 94 93" fill="none" xmlns="http://www.w3.org/2000/svg">
<rect width="33.7638" height="33.4357" transform="matrix(0.69665 -0.717411 0.718534 0.695492 22.7451 24.5298)" fill="black"/>
<rect width="33.7638" height="33.4357" transform="matrix(0.69665 -0.717411 0.718534 0.695492 0.501465 47.4358)" fill="black"/>
<rect width="33.7638" height="33.4357" transform="matrix(0.69665 -0.717411 0.718534 0.695492 45.4639 46.52)" fill="black"/>
<rect width="33.7638" height="33.4357" transform="matrix(0.69665 -0.717411 0.718534 0.695492 23.2202 69.4263)" fill="black"/>
<path d="M46.2925 2.80664L67.7882 23.613L46.7426 45.2858L46.5176 24.0462L46.2925 2.80664Z" fill="#F28908"/>
<path d="M46.7432 45.2856L25.2474 24.4792L46.293 2.80646L46.5181 24.0461L46.7432 45.2856Z" fill="#FCFCF8"/>
<path d="M24.0493 25.7124L45.5451 46.5188L24.4995 68.1916L24.2744 46.952L24.0493 25.7124Z" fill="#F28908"/>
<path d="M24.5 68.1914L3.00425 47.385L24.0498 25.7122L24.2749 46.9518L24.5 68.1914Z" fill="#FCFCF8"/>
<path d="M69.0112 24.7969L90.507 45.6033L69.4614 67.2761L69.2363 46.0365L69.0112 24.7969Z" fill="#F28908"/>
<path d="M69.4619 67.2759L47.9662 46.4695L69.0117 24.7967L69.2368 46.0363L69.4619 67.2759Z" fill="#FCFCF8"/>
<path d="M46.7686 47.7026L68.2643 68.509L47.2187 90.1818L46.9936 68.9422L46.7686 47.7026Z" fill="#F28908"/>
<path d="M47.2192 90.1816L25.7235 69.3752L46.7691 47.7025L46.9942 68.942L47.2192 90.1816Z" fill="#FCFCF8"/>
<rect width="22.7539" height="22.5327" transform="matrix(0.69665 -0.717411 0.718534 0.695492 30.4966 24.3721)" fill="#FEDC02"/>
<rect width="22.7539" height="22.5327" transform="matrix(0.69665 -0.717411 0.718534 0.695492 8.25391 47.2778)" fill="#FEDC02"/>
<rect width="22.7539" height="22.5327" transform="matrix(0.69665 -0.717411 0.718534 0.695492 53.2158 46.3623)" fill="#FEDC02"/>
<rect width="22.7539" height="22.5327" transform="matrix(0.69665 -0.717411 0.718534 0.695492 30.9727 69.2683)" fill="#FEDC02"/>
</svg>
