<svg width="60" height="58" viewBox="0 0 60 58" fill="none" xmlns="http://www.w3.org/2000/svg">
<rect x="28.9619" width="30.1514" height="29.8087" fill="black"/>
<rect x="0.449219" width="30.1514" height="29.8087" fill="black"/>
<rect x="28.9619" y="28.1887" width="30.1514" height="29.8087" fill="black"/>
<rect x="0.449219" y="28.1887" width="30.1514" height="29.8087" fill="black"/>
<path d="M57.5254 1.56909L57.5254 28.24L30.5479 28.24L44.0366 14.9046L57.5254 1.56909Z" fill="#F20808"/>
<path d="M30.5483 28.2398L30.5483 1.56888L57.5259 1.56888L44.0371 14.9043L30.5483 28.2398Z" fill="#FCFCF8"/>
<path d="M29.0127 1.56885L29.0127 28.2398L2.03517 28.2398L15.5239 14.9043L29.0127 1.56885Z" fill="#F20808"/>
<path d="M2.03564 28.2395L2.03564 1.56857L29.0132 1.56857L15.5244 14.904L2.03564 28.2395Z" fill="#FCFCF8"/>
<path d="M57.5254 29.7573L57.5254 56.4283L30.5479 56.4283L44.0366 43.0928L57.5254 29.7573Z" fill="#F20808"/>
<path d="M30.5483 56.428L30.5483 29.757L57.5259 29.757L44.0371 43.0925L30.5483 56.428Z" fill="#FCFCF8"/>
<path d="M29.0127 29.7573L29.0127 56.4283L2.03517 56.4283L15.5239 43.0928L29.0127 29.7573Z" fill="#F20808"/>
<path d="M2.03564 56.428L2.03564 29.757L29.0132 29.757L15.5244 43.0925L2.03564 56.428Z" fill="#FCFCF8"/>
<rect x="33.8774" y="4.86011" width="20.3203" height="20.0894" fill="#E83B3B"/>
<rect x="5.36523" y="4.86035" width="20.3203" height="20.0894" fill="#E83B3B"/>
<rect x="33.8774" y="33.0486" width="20.3203" height="20.0894" fill="#E83B3B"/>
<rect x="5.36523" y="33.0486" width="20.3203" height="20.0894" fill="#E83B3B"/>
</svg>
